<svg xmlns="http://www.w3.org/2000/svg" viewBox="0 0 609 541" width="609" height="541" role="img" aria-label="shashikiranbs2006 · language mix" font-family="ui-sans-serif,-apple-system,Segoe UI,Helvetica,Arial,sans-serif"><text x="304.5" y="25" text-anchor="middle" font-size="15" font-weight="700" fill="#1f2328">shashikiranbs2006 · language mix</text><g transform="translate(292.6,289.0)"><polygon points="0.0,-212.0 165.7,-132.2 206.7,47.2 92.0,191.0 -92.0,191.0 -206.7,47.2 -165.7,-132.2" fill="none" stroke="#d0d7de" stroke-width="1" opacity="0.85"/><polygon points="0.0,-159.0 124.3,-99.1 155.0,35.4 69.0,143.3 -69.0,143.3 -155.0,35.4 -124.3,-99.1" fill="none" stroke="#d0d7de" stroke-width="1" opacity="0.72"/><polygon points="0.0,-106.0 82.9,-66.1 103.3,23.6 46.0,95.5 -46.0,95.5 -103.3,23.6 -82.9,-66.1" fill="none" stroke="#d0d7de" stroke-width="1" opacity="0.60"/><polygon points="0.0,-53.0 41.4,-33.0 51.7,11.8 23.0,47.8 -23.0,47.8 -51.7,11.8 -41.4,-33.0" fill="none" stroke="#d0d7de" stroke-width="1" opacity="0.47"/><line x1="0" y1="0" x2="0.0" y2="-212.0" stroke="#e6eaef" stroke-width="1"/><line x1="0" y1="0" x2="165.7" y2="-132.2" stroke="#e6eaef" stroke-width="1"/><line x1="0" y1="0" x2="206.7" y2="47.2" stroke="#e6eaef" stroke-width="1"/><line x1="0" y1="0" x2="92.0" y2="191.0" stroke="#e6eaef" stroke-width="1"/><line x1="0" y1="0" x2="-92.0" y2="191.0" stroke="#e6eaef" stroke-width="1"/><line x1="0" y1="0" x2="-206.7" y2="47.2" stroke="#e6eaef" stroke-width="1"/><line x1="0" y1="0" x2="-165.7" y2="-132.2" stroke="#e6eaef" stroke-width="1"/><g><animateTransform attributeName="transform" type="scale" values="0.04;1" dur="1.1s" calcMode="spline" keyTimes="0;1" keySplines="0.22 1 0.36 1" fill="freeze"/><polygon points="0.0,-212.0 124.0,-98.9 120.9,27.6 37.7,78.3 -32.1,66.7 -49.0,11.2 -20.9,-16.7" fill="#2da44e" fill-opacity="0.22" stroke="#1a7f37" stroke-width="2.5" stroke-linejoin="round"/><circle cx="0.0" cy="-212.0" r="3.6" fill="#116329" stroke="#1a7f37" stroke-width="1.2"/><circle cx="124.0" cy="-98.9" r="3.6" fill="#116329" stroke="#1a7f37" stroke-width="1.2"/><circle cx="120.9" cy="27.6" r="3.6" fill="#116329" stroke="#1a7f37" stroke-width="1.2"/><circle cx="37.7" cy="78.3" r="3.6" fill="#116329" stroke="#1a7f37" stroke-width="1.2"/><circle cx="-32.1" cy="66.7" r="3.6" fill="#116329" stroke="#1a7f37" stroke-width="1.2"/><circle cx="-49.0" cy="11.2" r="3.6" fill="#116329" stroke="#1a7f37" stroke-width="1.2"/><circle cx="-20.9" cy="-16.7" r="3.6" fill="#116329" stroke="#1a7f37" stroke-width="1.2"/></g><text x="0.0" y="-237.0" text-anchor="middle" font-size="13" font-weight="600" fill="#1f2328">TypeScript</text><text x="0.0" y="-222.0" text-anchor="middle" font-size="11" fill="#57606a">100</text><text x="181.4" y="-149.6" text-anchor="start" font-size="13" font-weight="600" fill="#1f2328">Python</text><text x="181.4" y="-134.6" text-anchor="start" font-size="11" fill="#57606a">74.8</text><text x="226.2" y="55.6" text-anchor="start" font-size="13" font-weight="600" fill="#1f2328">JavaScript</text><text x="226.2" y="70.6" text-anchor="start" font-size="11" fill="#57606a">58.5</text><text x="100.7" y="223.0" text-anchor="start" font-size="13" font-weight="600" fill="#1f2328">CSS</text><text x="100.7" y="238.0" text-anchor="start" font-size="11" fill="#57606a">41</text><text x="-100.7" y="223.0" text-anchor="end" font-size="13" font-weight="600" fill="#1f2328">HTML</text><text x="-100.7" y="238.0" text-anchor="end" font-size="11" fill="#57606a">34.9</text><text x="-226.2" y="55.6" text-anchor="end" font-size="13" font-weight="600" fill="#1f2328">PLpgSQL</text><text x="-226.2" y="70.6" text-anchor="end" font-size="11" fill="#57606a">23.7</text><text x="-181.4" y="-149.6" text-anchor="end" font-size="13" font-weight="600" fill="#1f2328">Rust</text><text x="-181.4" y="-134.6" text-anchor="end" font-size="11" fill="#57606a">12.6</text></g></svg>