<svg xmlns="http://www.w3.org/2000/svg" viewBox="0 0 607 549" width="607" height="549" role="img" aria-label="Skill Radar" font-family="ui-sans-serif,-apple-system,Segoe UI,Helvetica,Arial,sans-serif"><text x="303.5" y="25" text-anchor="middle" font-size="15" font-weight="700" fill="#1f2328">Skill Radar</text><g transform="translate(299.6,289.0)"><polygon points="0.0,-212.0 183.6,-106.0 183.6,106.0 0.0,212.0 -183.6,106.0 -183.6,-106.0" fill="none" stroke="#d0d7de" stroke-width="1" opacity="0.85"/><polygon points="0.0,-159.0 137.7,-79.5 137.7,79.5 0.0,159.0 -137.7,79.5 -137.7,-79.5" fill="none" stroke="#d0d7de" stroke-width="1" opacity="0.72"/><polygon points="0.0,-106.0 91.8,-53.0 91.8,53.0 0.0,106.0 -91.8,53.0 -91.8,-53.0" fill="none" stroke="#d0d7de" stroke-width="1" opacity="0.60"/><polygon points="0.0,-53.0 45.9,-26.5 45.9,26.5 0.0,53.0 -45.9,26.5 -45.9,-26.5" fill="none" stroke="#d0d7de" stroke-width="1" opacity="0.47"/><line x1="0" y1="0" x2="0.0" y2="-212.0" stroke="#e6eaef" stroke-width="1"/><line x1="0" y1="0" x2="183.6" y2="-106.0" stroke="#e6eaef" stroke-width="1"/><line x1="0" y1="0" x2="183.6" y2="106.0" stroke="#e6eaef" stroke-width="1"/><line x1="0" y1="0" x2="0.0" y2="212.0" stroke="#e6eaef" stroke-width="1"/><line x1="0" y1="0" x2="-183.6" y2="106.0" stroke="#e6eaef" stroke-width="1"/><line x1="0" y1="0" x2="-183.6" y2="-106.0" stroke="#e6eaef" stroke-width="1"/><g><animateTransform attributeName="transform" type="scale" values="0.04;1" dur="1.1s" calcMode="spline" keyTimes="0;1" keySplines="0.22 1 0.36 1" fill="freeze"/><polygon points="0.0,-144.2 101.0,-58.3 113.8,65.7 0.0,106.0 -82.6,47.7 -45.9,-26.5" fill="#2da44e" fill-opacity="0.22" stroke="#1a7f37" stroke-width="2.5" stroke-linejoin="round"/><circle cx="0.0" cy="-144.2" r="3.6" fill="#116329" stroke="#1a7f37" stroke-width="1.2"/><circle cx="101.0" cy="-58.3" r="3.6" fill="#116329" stroke="#1a7f37" stroke-width="1.2"/><circle cx="113.8" cy="65.7" r="3.6" fill="#116329" stroke="#1a7f37" stroke-width="1.2"/><circle cx="0.0" cy="106.0" r="3.6" fill="#116329" stroke="#1a7f37" stroke-width="1.2"/><circle cx="-82.6" cy="47.7" r="3.6" fill="#116329" stroke="#1a7f37" stroke-width="1.2"/><circle cx="-45.9" cy="-26.5" r="3.6" fill="#116329" stroke="#1a7f37" stroke-width="1.2"/></g><text x="0.0" y="-237.0" text-anchor="middle" font-size="13" font-weight="600" fill="#1f2328">Python</text><text x="200.9" y="-121.0" text-anchor="start" font-size="13" font-weight="600" fill="#1f2328">JS / TS</text><text x="200.9" y="130.0" text-anchor="start" font-size="13" font-weight="600" fill="#1f2328">LLM &amp; Agents</text><text x="0.0" y="246.0" text-anchor="middle" font-size="13" font-weight="600" fill="#1f2328">AWS / Cloud</text><text x="-200.9" y="130.0" text-anchor="end" font-size="13" font-weight="600" fill="#1f2328">React / Web</text><text x="-200.9" y="-121.0" text-anchor="end" font-size="13" font-weight="600" fill="#1f2328">DSA</text></g></svg>